<?xml version="1.0" encoding="UTF-8" standalone="no"?>
<!DOCTYPE svg PUBLIC "-//W3C//DTD SVG 1.1//EN" "http://www.w3.org/Graphics/SVG/1.1/DTD/svg11.dtd">
<svg width="100%" height="100%" viewBox="0 0 2375 1609" version="1.1" xmlns="http://www.w3.org/2000/svg" xmlns:xlink="http://www.w3.org/1999/xlink" xml:space="preserve" xmlns:serif="http://www.serif.com/" style="fill-rule:evenodd;clip-rule:evenodd;stroke-linejoin:round;stroke-miterlimit:2;">
    <g transform="matrix(4.16667,0,0,4.16667,0,-458.096)">
        <path d="M480.996,240.624C476.824,238.947 472.08,240.971 470.404,245.144C468.727,249.318 470.751,254.06 474.924,255.737C479.098,257.414 483.84,255.39 485.517,251.217C487.194,247.043 485.17,242.301 480.996,240.624ZM488.843,233.07C490.186,234.074 491.37,235.241 492.378,236.533L496.892,235.709L499.871,242.691L496.154,245.38C496.389,247.001 496.413,248.665 496.208,250.329L499.982,252.937L497.151,259.981L492.622,259.254C491.619,260.598 490.451,261.782 489.159,262.789L489.983,267.304L483.001,270.283L480.312,266.565C478.691,266.801 477.028,266.824 475.363,266.619L472.755,270.392L465.71,267.562L466.438,263.033C465.094,262.031 463.91,260.862 462.903,259.57L458.388,260.394L455.409,253.412L459.127,250.723C458.892,249.102 458.868,247.439 459.073,245.774L455.3,243.166L458.13,236.122L462.659,236.849C463.661,235.506 464.83,234.321 466.122,233.314L465.298,228.8L472.28,225.82L474.969,229.538C476.59,229.303 478.253,229.279 479.918,229.484L482.526,225.711L489.57,228.541L488.843,233.07Z" style="fill:rgb(229,229,228);"/>
    </g>
    <g transform="matrix(4.16667,0,0,4.16667,0,-103.621)">
        <path d="M55.992,192.089C48.448,189.058 39.876,192.716 36.845,200.259C33.814,207.803 37.473,216.375 45.016,219.406C52.559,222.436 61.132,218.779 64.163,211.235C67.193,203.691 63.536,195.119 55.992,192.089ZM70.173,178.436C72.602,180.249 74.742,182.36 76.564,184.695L84.723,183.205L90.108,195.826L83.389,200.686C83.814,203.616 83.857,206.623 83.487,209.631L90.307,214.345L85.19,227.078L77.006,225.763C75.192,228.192 73.079,230.333 70.745,232.154L72.234,240.312L59.614,245.698L54.753,238.978C51.823,239.403 48.817,239.446 45.809,239.076L41.095,245.895L28.362,240.78L29.677,232.595C27.248,230.781 25.107,228.669 23.286,226.334L15.127,227.824L9.742,215.203L16.462,210.343C16.037,207.413 15.994,204.407 16.365,201.398L9.544,196.684L14.661,183.952L22.845,185.267C24.659,182.837 26.77,180.697 29.105,178.876L27.616,170.717L40.236,165.331L45.098,172.052C48.027,171.626 51.034,171.584 54.041,171.954L58.756,165.134L71.488,170.249L70.173,178.436Z" style="fill:rgb(229,229,228);"/>
    </g>
    <g transform="matrix(4.16667,0,0,4.16667,0,-736.804)">
        <path d="M28.841,274.069C24.667,272.392 19.925,274.416 18.248,278.589C16.572,282.762 18.596,287.505 22.769,289.182C26.942,290.858 31.685,288.835 33.362,284.661C35.038,280.488 33.015,275.746 28.841,274.069ZM36.687,266.515C38.031,267.519 39.215,268.687 40.223,269.978L44.737,269.154L47.716,276.136L43.998,278.825C44.234,280.446 44.258,282.11 44.053,283.774L47.826,286.382L44.995,293.426L40.467,292.698C39.463,294.043 38.295,295.227 37.003,296.234L37.828,300.748L30.845,303.728L28.156,300.01C26.535,300.245 24.872,300.269 23.207,300.064L20.599,303.837L13.555,301.007L14.283,296.478C12.939,295.475 11.754,294.306 10.747,293.015L6.233,293.839L3.253,286.857L6.972,284.168C6.736,282.547 6.712,280.883 6.917,279.219L3.144,276.611L5.974,269.567L10.503,270.295C11.506,268.951 12.674,267.766 13.966,266.759L13.142,262.245L20.124,259.265L22.814,262.984C24.435,262.748 26.098,262.724 27.762,262.929L30.37,259.156L37.414,261.986L36.687,266.515Z" style="fill:rgb(234,235,234);"/>
    </g>
    <g transform="matrix(4.16667,0,0,4.16667,0,-959.929)">
        <path d="M115.162,288.141C104,287.101 94.108,295.306 93.068,306.468C92.028,317.63 100.234,327.521 111.395,328.561C122.557,329.602 132.449,321.397 133.489,310.235C134.529,299.073 126.324,289.181 115.162,288.141ZM128.537,264.521C132.461,265.963 136.12,267.912 139.445,270.282L149.643,265.105L161.723,279.668L154.752,288.734C156.466,292.439 157.706,296.396 158.399,300.518L169.265,304.067L167.509,322.907L156.175,324.387C154.732,328.31 152.783,331.97 150.412,335.294L155.589,345.493L141.026,357.572L131.959,350.6C128.254,352.315 124.298,353.554 120.176,354.246L116.626,365.114L97.786,363.358L96.307,352.024C92.383,350.581 88.724,348.632 85.399,346.261L75.201,351.438L63.12,336.875L70.092,327.809C68.378,324.103 67.14,320.147 66.447,316.026L55.578,312.476L57.334,293.636L68.669,292.156C70.112,288.233 72.061,284.574 74.432,281.248L69.255,271.051L83.818,258.971L92.885,265.942C96.59,264.228 100.547,262.989 104.668,262.297L108.218,251.429L127.057,253.184L128.537,264.521Z" style="fill:rgb(215,217,217);"/>
    </g>
    <g transform="matrix(4.16667,0,0,4.16667,0,930.329)">
        <path d="M49.461,122.612C61.946,114.44 65.116,98.794 64.977,84.659C64.954,82.299 65.277,79.819 64.191,77.724C63.105,75.628 60.489,74.151 58.326,75.094C56.532,75.876 55.708,77.894 54.674,79.555C53.299,81.764 51.286,83.571 48.942,84.701C47.402,85.444 45.509,85.876 44.027,85.022C41.994,83.852 41.82,81.036 41.892,78.691C42.027,74.321 42.162,69.952 42.297,65.583C42.369,63.238 42.435,60.844 41.75,58.602C41.066,56.358 39.484,54.251 37.239,53.573C34.994,52.894 32.167,54.113 31.634,56.397C31.412,57.348 31.585,58.344 31.495,59.315C31.405,60.287 30.919,61.353 29.976,61.602C29.021,61.853 28.087,61.167 27.393,60.464C24.999,58.037 23.41,54.947 21.929,51.877C20.448,48.808 19.015,45.666 16.853,43.03C14.691,40.395 11.663,38.276 8.265,38.005C4.868,37.733 1.191,39.719 0.251,42.995C-0.692,46.279 1.18,49.681 3.241,52.407C6.298,56.452 9.944,60.053 14.027,63.059C14.764,63.602 15.562,64.187 15.827,65.063C16.305,66.639 14.765,68.156 13.189,68.632C11.403,69.172 9.487,68.944 7.629,69.115C5.771,69.286 3.744,70.045 3,71.756C1.969,74.13 3.938,76.69 5.896,78.383C9.817,81.773 14.323,84.485 19.155,86.364C20.887,87.038 22.713,87.636 24.092,88.881C25.472,90.126 26.27,92.254 25.379,93.885C24.486,95.519 22.288,95.994 20.465,95.615C18.643,95.237 17.028,94.217 15.3,93.525C12.064,92.23 7.842,92.352 5.683,95.088C4.264,96.885 4.08,99.433 4.722,101.631C5.363,103.829 6.727,105.742 8.181,107.512C13.266,113.696 19.846,118.733 27.356,121.507C34.867,124.28 41.867,125.148 49.461,122.612Z" style="fill:rgb(175,202,226);fill-rule:nonzero;"/>
    </g>
    <g transform="matrix(4.16667,0,0,4.16667,0,1047.68)">
        <path d="M3.762,11.696C3.757,11.702 3.833,11.779 3.987,11.925C4.159,12.083 4.387,12.294 4.678,12.563C5.287,13.12 6.184,13.943 7.311,15.033C9.568,17.207 12.734,20.472 16.149,24.917C17.864,27.132 19.64,29.637 21.499,32.359C23.352,35.087 25.314,38.014 27.26,41.166C29.205,44.316 31.148,47.69 32.876,51.327C33.748,53.141 34.518,55.037 35.305,56.97C36.086,58.9 36.88,60.861 37.682,62.844C40.866,70.788 43.649,78.461 45.596,85.611C47.557,92.756 48.665,99.362 49.084,104.946C49.517,110.533 49.289,115.08 48.983,118.195C48.82,119.753 48.669,120.962 48.537,121.776C48.482,122.168 48.438,122.476 48.405,122.707C48.377,122.916 48.367,123.024 48.374,123.026C48.381,123.027 48.407,122.922 48.449,122.714C48.492,122.485 48.55,122.18 48.624,121.791C48.785,120.98 48.963,119.772 49.152,118.214C49.511,115.096 49.787,110.535 49.392,104.924C49.011,99.315 47.93,92.679 45.985,85.506C44.053,78.327 41.274,70.633 38.088,62.683C37.284,60.698 36.49,58.737 35.707,56.805C34.921,54.878 34.141,52.967 33.262,51.144C31.519,47.488 29.562,44.107 27.601,40.953C25.641,37.799 23.665,34.875 21.798,32.154C19.923,29.438 18.128,26.938 16.393,24.728C12.935,20.293 9.724,17.049 7.428,14.91C6.282,13.837 5.365,13.033 4.736,12.497C4.433,12.242 4.195,12.042 4.017,11.891C3.853,11.757 3.767,11.69 3.762,11.696Z" style="fill:rgb(12,43,52);fill-rule:nonzero;"/>
    </g>
    <g transform="matrix(4.16667,0,0,4.16667,0,805.233)">
        <path d="M33.137,109.31C33.167,109.316 33.257,108.961 33.394,108.316C33.535,107.67 33.707,106.731 33.903,105.568C34.296,103.241 34.728,100.009 35.19,96.445C35.653,92.878 36.13,89.663 36.558,87.348C36.769,86.191 36.949,85.255 37.082,84.61C37.211,83.965 37.268,83.603 37.239,83.596C37.21,83.588 37.097,83.936 36.916,84.572C36.732,85.206 36.505,86.134 36.255,87.289C35.748,89.596 35.22,92.819 34.757,96.388C34.31,99.907 33.906,103.089 33.598,105.522C33.451,106.62 33.327,107.545 33.227,108.287C33.141,108.941 33.108,109.305 33.137,109.31Z" style="fill:rgb(12,43,52);fill-rule:nonzero;"/>
    </g>
    <g transform="matrix(4.16667,0,0,4.16667,0,885.867)">
        <path d="M2.73,83.595C2.728,83.625 3.161,83.685 3.944,83.769C4.726,83.856 5.859,83.976 7.253,84.17C10.043,84.534 13.88,85.172 18.081,86.057C22.283,86.951 26.051,87.919 28.755,88.697C30.111,89.077 31.199,89.413 31.953,89.641C32.705,89.872 33.127,89.987 33.137,89.958C33.147,89.93 32.745,89.762 32.007,89.48C31.268,89.202 30.191,88.82 28.844,88.401C26.154,87.545 22.386,86.526 18.172,85.63C13.957,84.741 10.099,84.15 7.289,83.862C5.887,83.708 4.745,83.634 3.957,83.599C3.168,83.567 2.732,83.565 2.73,83.595Z" style="fill:rgb(12,43,52);fill-rule:nonzero;"/>
    </g>
    <g transform="matrix(4.16667,0,0,4.16667,0,1035.3)">
        <path d="M45.622,87.912C45.636,87.918 45.711,87.793 45.841,87.549C45.989,87.258 46.17,86.902 46.39,86.471C46.863,85.533 47.511,84.158 48.288,82.448C49.847,79.03 51.849,74.241 53.986,68.926C56.124,63.611 58.078,58.81 59.562,55.365C60.289,53.69 60.888,52.312 61.332,51.288C61.522,50.844 61.679,50.477 61.807,50.177C61.911,49.92 61.959,49.783 61.946,49.776C61.932,49.769 61.857,49.894 61.727,50.139C61.579,50.43 61.398,50.785 61.178,51.216C60.705,52.156 60.057,53.53 59.28,55.241C57.722,58.658 55.719,63.448 53.581,68.763C51.444,74.077 49.49,78.877 48.006,82.324C47.279,83.998 46.681,85.375 46.236,86.4C46.046,86.844 45.89,87.211 45.761,87.511C45.657,87.768 45.608,87.906 45.622,87.912Z" style="fill:rgb(12,43,52);fill-rule:nonzero;"/>
    </g>
    <g transform="matrix(4.16667,0,0,4.16667,0,1136.37)">
        <path d="M5.348,49.775C5.344,49.789 5.48,49.849 5.746,49.949C6.061,50.061 6.447,50.199 6.916,50.367C7.996,50.741 9.454,51.246 11.228,51.861C14.869,53.122 19.878,54.923 25.41,56.921C30.944,58.918 35.974,60.674 39.643,61.863C41.477,62.458 42.967,62.924 44.002,63.226C44.481,63.362 44.876,63.475 45.197,63.566C45.471,63.639 45.618,63.671 45.622,63.656C45.627,63.642 45.489,63.582 45.223,63.483C44.909,63.369 44.523,63.232 44.055,63.065C42.974,62.691 41.516,62.185 39.742,61.57C36.101,60.308 31.092,58.508 25.558,56.51C20.026,54.513 14.996,52.757 11.327,51.568C9.493,50.973 8.003,50.507 6.968,50.205C6.489,50.069 6.095,49.956 5.773,49.865C5.498,49.792 5.352,49.76 5.348,49.775Z" style="fill:rgb(12,43,52);fill-rule:nonzero;"/>
    </g>
    <g transform="matrix(4.16667,0,0,4.16667,0,-345.071)">
        <path d="M455.276,323.152L394.942,322.873C387.685,322.841 381.828,316.949 381.86,309.712L382.498,158.875C382.53,151.635 388.442,145.791 395.702,145.824L456.036,146.103C463.292,146.136 469.149,152.028 469.118,159.264L468.479,310.102C468.448,317.342 462.535,323.186 455.276,323.152Z" style="fill:rgb(51,88,99);fill-rule:nonzero;"/>
    </g>
    <g transform="matrix(4.16667,0,0,4.16667,0,-349.454)">
        <path d="M455.951,152.36L444.252,152.307C442.684,152.3 441.407,153.62 441.4,155.255L441.39,157.371C441.384,159.006 440.106,160.326 438.537,160.319L415.736,160.214C414.167,160.207 412.901,158.875 412.908,157.239L412.917,155.124C412.924,153.488 411.658,152.156 410.089,152.149L405.975,152.13L395.737,152.083C390.652,152.06 386.511,156.152 386.49,161.223L385.866,308.451C385.844,313.519 389.946,317.645 395.028,317.668L455.242,317.946C460.326,317.969 464.466,313.877 464.488,308.806L465.112,161.578C465.133,156.51 461.033,152.384 455.951,152.36Z" style="fill:white;fill-rule:nonzero;"/>
    </g>
    <g transform="matrix(4.16667,0,0,4.16667,0,-186.808)">
        <rect x="395.384" y="213.504" width="59.581" height="3.986" style="fill:rgb(51,88,99);"/>
    </g>
    <g transform="matrix(0,-4.16667,-4.16667,0,2609.32,2536.66)">
        <ellipse cx="424.438" cy="201.799" rx="0.26" ry="28.403" style="fill:rgb(51,88,99);"/>
    </g>
    <g transform="matrix(0,-4.16667,-4.16667,0,3003.22,2142.76)">
        <ellipse cx="424.438" cy="296.335" rx="0.26" ry="28.403" style="fill:rgb(51,88,99);"/>
    </g>
    <g transform="matrix(0,-4.16667,-4.16667,0,2579.08,2566.9)">
        <ellipse cx="424.438" cy="194.543" rx="0.26" ry="28.403" style="fill:rgb(51,88,99);"/>
    </g>
    <g transform="matrix(0,-4.16667,-4.16667,0,2548.86,2597.12)">
        <ellipse cx="424.438" cy="187.288" rx="0.26" ry="28.403" style="fill:rgb(51,88,99);"/>
    </g>
    <g transform="matrix(0,-4.16667,-4.16667,0,2518.63,2627.35)">
        <ellipse cx="424.438" cy="180.033" rx="0.26" ry="28.403" style="fill:rgb(51,88,99);"/>
    </g>
    <g transform="matrix(0,-4.16667,-4.16667,0,2488.39,2657.59)">
        <ellipse cx="424.438" cy="172.777" rx="0.26" ry="28.403" style="fill:rgb(51,88,99);"/>
    </g>
    <g transform="matrix(0,-4.16667,-4.16667,0,2457.5,2695.25)">
        <ellipse cx="425.25" cy="164.551" rx="0.261" ry="28.403" style="fill:rgb(51,88,99);"/>
    </g>
    <g transform="matrix(4.16667,0,0,4.16667,0,-550.733)">
        <rect x="396.035" y="230.274" width="59.731" height="57.788" style="fill:rgb(215,217,217);"/>
    </g>
    <g transform="matrix(4.16667,0,0,4.16667,0,-475.075)">
        <path d="M400.665,264.958L417.189,235.22L430.704,254.228L438.916,244.134L451.134,264.958L400.665,264.958Z" style="fill:rgb(175,202,226);fill-rule:nonzero;"/>
    </g>
    <g transform="matrix(0,-4.16667,-4.16667,0,2928.77,2281.59)">
        <circle cx="432.163" cy="270.741" r="4.299" style="fill:rgb(175,202,226);"/>
    </g>
    <g transform="matrix(4.16667,0,0,4.16667,0,-551.15)">
        <path d="M451.134,283.377C451.13,283.372 451.125,283.293 451.12,283.14C451.118,282.967 451.113,282.747 451.107,282.466C451.1,281.851 451.091,280.984 451.078,279.866C451.064,277.574 451.042,274.26 451.015,270.052C450.985,261.611 450.942,249.591 450.89,235.159L451.134,235.403C436.517,235.414 419.191,235.429 400.67,235.443C400.602,235.503 401.204,234.908 400.95,235.167L400.95,241.705C400.949,243.871 400.949,246.016 400.948,248.14C400.945,252.387 400.943,256.545 400.941,260.593C400.931,268.686 400.921,276.338 400.913,283.376L400.665,283.129C415.729,283.181 428.31,283.224 437.156,283.255C441.567,283.283 445.044,283.304 447.448,283.32C448.622,283.332 449.534,283.342 450.178,283.349C450.474,283.355 450.704,283.359 450.885,283.363C451.046,283.367 451.13,283.372 451.134,283.377C451.139,283.381 451.065,283.387 450.913,283.391C450.74,283.394 450.517,283.399 450.233,283.405C449.6,283.411 448.704,283.422 447.551,283.434C445.16,283.449 441.701,283.471 437.315,283.499C428.431,283.53 415.794,283.573 400.665,283.625L400.417,283.626L400.417,283.376C400.41,276.338 400.4,268.686 400.39,260.593C400.388,256.545 400.385,252.387 400.383,248.14C400.382,246.016 400.382,243.871 400.381,241.705L400.381,236.802L400.38,235.979L400.38,235.167C400.127,235.416 400.726,234.81 400.67,234.874C419.191,234.889 436.517,234.903 451.134,234.914L451.379,234.914L451.378,235.159C451.327,249.655 451.284,261.728 451.253,270.207C451.227,274.391 451.204,277.687 451.19,279.966C451.178,281.064 451.168,281.916 451.161,282.52C451.156,282.789 451.152,283.001 451.148,283.167C451.144,283.311 451.139,283.381 451.134,283.377Z" style="fill:rgb(51,88,99);fill-rule:nonzero;"/>
    </g>
    <g transform="matrix(4.16667,0,0,4.16667,0,-955.342)">
        <path d="M366.129,241.109L366.129,374.333C366.129,380.712 360.958,385.882 354.579,385.882L153.341,385.882C146.962,385.882 141.792,380.712 141.792,374.333L141.792,241.109C141.792,234.73 146.962,229.56 153.341,229.56L354.579,229.56C360.958,229.56 366.129,234.73 366.129,241.109Z" style="fill:rgb(51,88,99);fill-rule:nonzero;"/>
    </g>
    <g transform="matrix(4.16667,0,0,4.16667,0,-955.342)">
        <rect x="157.14" y="234.489" width="187.349" height="146.464" style="fill:white;"/>
    </g>
    <g transform="matrix(-4.16667,0,0,4.16667,2957.13,-955.342)">
        <circle cx="354.856" cy="307.721" r="5.998" style="fill:rgb(12,43,52);"/>
    </g>
    <g transform="matrix(4.16667,0,0,4.16667,0,-955.342)">
        <path d="M150.731,285.395L150.731,330.047C150.731,330.718 150.187,331.262 149.515,331.262L149.468,331.262C148.797,331.262 148.253,330.718 148.253,330.047L148.253,285.395C148.253,284.724 148.797,284.18 149.468,284.18L149.515,284.18C150.187,284.18 150.731,284.724 150.731,285.395Z" style="fill:rgb(12,43,52);fill-rule:nonzero;"/>
    </g>
    <g transform="matrix(4.16667,0,0,4.16667,0,-1457.29)">
        <rect x="242.589" y="365.962" width="59.581" height="3.985" style="fill:rgb(51,88,99);"/>
    </g>
    <g transform="matrix(4.16667,0,0,4.16667,0,-886.242)">
        <rect x="164.983" y="297.436" width="59.58" height="3.986" style="fill:rgb(51,88,99);"/>
    </g>
    <g transform="matrix(0,-4.16667,-4.16667,0,2644.76,1294.56)">
        <ellipse cx="279.638" cy="355.104" rx="0.261" ry="37.049" style="fill:rgb(51,88,99);"/>
    </g>
    <g transform="matrix(0,-4.16667,-4.16667,0,2608.49,1330.82)">
        <ellipse cx="279.638" cy="346.401" rx="0.26" ry="37.049" style="fill:rgb(51,88,99);"/>
    </g>
    <g transform="matrix(0,-4.16667,-4.16667,0,2572.23,1367.09)">
        <ellipse cx="279.638" cy="337.698" rx="0.261" ry="37.049" style="fill:rgb(51,88,99);"/>
    </g>
    <g transform="matrix(0,-4.16667,-4.16667,0,2535.97,1403.35)">
        <ellipse cx="279.638" cy="328.995" rx="0.261" ry="37.049" style="fill:rgb(51,88,99);"/>
    </g>
    <g transform="matrix(0,-4.16667,-4.16667,0,2499.71,1439.61)">
        <ellipse cx="279.638" cy="320.291" rx="0.261" ry="37.049" style="fill:rgb(51,88,99);"/>
    </g>
    <g transform="matrix(0,-4.16667,-4.16667,0,2429.59,1442.02)">
        <ellipse cx="271.513" cy="311.589" rx="0.261" ry="28.924" style="fill:rgb(51,88,99);"/>
    </g>
    <g transform="matrix(0,-4.16667,-4.16667,0,2083.18,1311.1)">
        <ellipse cx="214.234" cy="285.73" rx="0.26" ry="48.601" style="fill:rgb(51,88,99);"/>
    </g>
    <g transform="matrix(0,-4.16667,-4.16667,0,2052.95,1341.33)">
        <ellipse cx="214.234" cy="278.475" rx="0.26" ry="48.601" style="fill:rgb(51,88,99);"/>
    </g>
    <g transform="matrix(0,-4.16667,-4.16667,0,2022.72,1371.55)">
        <ellipse cx="214.234" cy="271.22" rx="0.26" ry="48.601" style="fill:rgb(51,88,99);"/>
    </g>
    <g transform="matrix(0,-4.16667,-4.16667,0,1992.49,1401.79)">
        <ellipse cx="214.234" cy="263.965" rx="0.26" ry="48.601" style="fill:rgb(51,88,99);"/>
    </g>
    <g transform="matrix(0,-4.16667,-4.16667,0,1962.26,1432.02)">
        <ellipse cx="214.234" cy="256.71" rx="0.26" ry="48.601" style="fill:rgb(51,88,99);"/>
    </g>
    <g transform="matrix(4.16667,0,0,4.16667,0,-1250.17)">
        <rect x="165.633" y="314.206" width="59.731" height="57.789" style="fill:rgb(175,202,226);"/>
    </g>
    <g transform="matrix(4.16667,0,0,4.16667,0,-1174.5)">
        <path d="M170.264,348.889L186.787,319.152L200.303,338.158L208.515,328.065L220.733,348.889L170.264,348.889Z" style="fill:rgb(215,217,217);fill-rule:nonzero;"/>
    </g>
    <g transform="matrix(0,-4.16667,-4.16667,0,2318.48,971.865)">
        <ellipse cx="201.761" cy="354.674" rx="4.298" ry="4.298" style="fill:rgb(215,217,217);"/>
    </g>
    <g transform="matrix(4.16667,0,0,4.16667,0,-1250.58)">
        <path d="M220.733,367.309C220.728,367.305 220.724,367.225 220.719,367.072C220.716,366.899 220.711,366.679 220.705,366.398C220.699,365.783 220.689,364.916 220.677,363.798C220.662,361.506 220.641,358.191 220.614,353.983C220.583,345.542 220.54,333.522 220.489,319.091L220.733,319.334C206.116,319.347 188.789,319.36 170.269,319.375C170.201,319.435 170.803,318.84 170.548,319.099L170.548,325.638C170.547,327.803 170.547,329.948 170.546,332.072C170.543,336.319 170.541,340.477 170.539,344.524C170.529,352.618 170.52,360.27 170.512,367.309L170.264,367.061C185.327,367.113 197.909,367.156 206.754,367.187C211.164,367.215 214.642,367.236 217.046,367.252C218.221,367.264 219.132,367.274 219.777,367.281C220.072,367.287 220.304,367.291 220.484,367.295C220.644,367.299 220.728,367.304 220.733,367.309C220.738,367.313 220.663,367.318 220.512,367.323C220.338,367.326 220.116,367.331 219.831,367.337C219.198,367.344 218.303,367.354 217.149,367.366C214.759,367.381 211.3,367.403 206.913,367.431C198.029,367.461 185.392,367.505 170.264,367.557L170.016,367.558L170.016,367.309C170.008,360.27 169.998,352.618 169.989,344.524C169.987,340.477 169.984,336.319 169.981,332.072C169.981,329.948 169.98,327.803 169.98,325.638C169.979,324.555 169.979,323.467 169.979,322.375L169.979,319.099C169.725,319.349 170.325,318.742 170.269,318.806C188.789,318.821 206.116,318.834 220.733,318.846L220.978,318.847L220.977,319.091C220.925,333.587 220.882,345.66 220.852,354.139C220.825,358.323 220.804,361.62 220.788,363.898C220.776,364.996 220.767,365.848 220.76,366.452C220.755,366.721 220.75,366.933 220.746,367.099C220.742,367.243 220.738,367.313 220.733,367.309Z" style="fill:rgb(51,88,99);fill-rule:nonzero;"/>
    </g>
    <g transform="matrix(4.16667,0,0,4.16667,0,-668.554)">
        <rect x="276.241" y="252.858" width="42.273" height="40.897" style="fill:rgb(175,202,226);"/>
    </g>
    <g transform="matrix(4.16667,0,0,4.16667,0,-615.004)">
        <path d="M279.519,277.403L291.212,256.358L300.778,269.809L306.589,262.666L315.236,277.403L279.519,277.403Z" style="fill:rgb(215,217,217);fill-rule:nonzero;"/>
    </g>
    <g transform="matrix(0,-4.16667,-4.16667,0,2430.45,1693.64)">
        <circle cx="301.81" cy="281.497" r="3.042" style="fill:rgb(215,217,217);"/>
    </g>
    <g transform="matrix(4.16667,0,0,4.16667,0,-668.846)">
        <path d="M315.236,290.439C315.233,290.436 315.23,290.379 315.226,290.271C315.224,290.149 315.221,289.993 315.217,289.795C315.212,289.359 315.205,288.745 315.197,287.954C315.186,286.332 315.171,283.987 315.152,281.009C315.13,275.035 315.1,266.528 315.063,256.315L315.236,256.487C304.892,256.496 292.629,256.506 279.522,256.516C279.474,256.558 279.9,256.137 279.72,256.32L279.72,258.639C279.72,259.412 279.719,260.182 279.719,260.947C279.719,262.48 279.719,263.999 279.718,265.501C279.716,268.507 279.715,271.449 279.713,274.314C279.706,280.042 279.7,285.457 279.694,290.439L279.519,290.263C290.179,290.301 299.083,290.331 305.343,290.353C308.464,290.372 310.926,290.388 312.627,290.399C313.458,290.407 314.103,290.414 314.56,290.419C314.769,290.423 314.932,290.426 315.06,290.429C315.173,290.432 315.233,290.435 315.236,290.439C315.24,290.442 315.187,290.446 315.079,290.449C314.956,290.451 314.799,290.455 314.598,290.459C314.15,290.464 313.517,290.47 312.7,290.479C311.008,290.49 308.56,290.506 305.455,290.525C299.168,290.547 290.225,290.578 279.519,290.614L279.343,290.615L279.343,290.439C279.337,285.457 279.33,280.042 279.324,274.314C279.323,271.449 279.321,268.507 279.319,265.501C279.319,263.999 279.318,262.48 279.318,260.947L279.318,257.478L279.317,256.895L279.317,256.32C279.137,256.497 279.562,256.068 279.522,256.113C292.629,256.124 304.892,256.133 315.236,256.142L315.41,256.142L315.409,256.315C315.372,266.573 315.342,275.118 315.321,281.118C315.301,284.08 315.285,286.412 315.276,288.025C315.267,288.802 315.26,289.405 315.255,289.832C315.251,290.023 315.248,290.173 315.245,290.291C315.243,290.392 315.24,290.442 315.236,290.439Z" style="fill:rgb(51,88,99);fill-rule:nonzero;"/>
    </g>
    <g transform="matrix(4.16667,0,0,4.16667,0,691.771)">
        <path d="M348.947,213.754L64.492,213.754C56.447,213.754 49.925,207.232 49.925,199.187L49.925,20.949C49.925,12.903 56.447,6.381 64.492,6.381L348.947,6.381C356.992,6.381 363.514,12.903 363.514,20.949L363.514,199.187C363.514,207.232 356.992,213.754 348.947,213.754Z" style="fill:rgb(12,43,52);fill-rule:nonzero;"/>
    </g>
    <g transform="matrix(4.16667,0,0,4.16667,0,1503.62)">
        <path d="M358.763,21.718L54.609,21.718C44.78,21.718 36.811,13.75 36.811,3.92L36.811,3.573L376.561,3.573L376.561,3.92C376.561,13.75 368.592,21.718 358.763,21.718Z" style="fill:rgb(12,43,52);fill-rule:nonzero;"/>
    </g>
    <g transform="matrix(4.16667,0,0,4.16667,0,626.058)">
        <rect x="58.343" y="30.392" width="295.876" height="175.122" style="fill:rgb(215,217,217);"/>
    </g>
    <g transform="matrix(2.21768,3.52746,3.52746,-2.21768,343.596,834.084)">
        <path d="M188.744,-8.404L196.665,-8.404L228.24,41.82L224.647,48.703L188.744,-8.404Z" style="fill:rgb(51,88,99);fill-rule:nonzero;"/>
    </g>
    <g transform="matrix(4.16667,0,0,4.16667,0,674.367)">
        <rect x="68.21" y="30.459" width="272.412" height="163.394" style="fill:rgb(249,249,249);"/>
    </g>
    <g transform="matrix(0,-4.16667,-4.16667,0,1097.28,1157.99)">
        <circle cx="77.553" cy="185.794" r="2.286" style="fill:rgb(51,88,99);"/>
    </g>
    <g transform="matrix(0,-4.16667,-4.16667,0,1136.14,1196.85)">
        <circle cx="86.88" cy="185.794" r="2.286" style="fill:rgb(51,88,99);"/>
    </g>
    <g transform="matrix(0,-4.16667,-4.16667,0,1175.01,1235.72)">
        <ellipse cx="96.207" cy="185.795" rx="2.286" ry="2.286" style="fill:rgb(51,88,99);"/>
    </g>
    <g transform="matrix(0,-4.16667,-4.16667,0,1584.21,1728.26)">
        <ellipse cx="204.416" cy="175.795" rx="0.261" ry="136.206" style="fill:rgb(51,88,99);"/>
    </g>
    <g transform="matrix(4.16667,0,0,4.16667,0,1433.35)">
        <rect x="49.925" y="20.578" width="313.589" height="1" style="fill:rgb(51,88,99);"/>
    </g>
    <g transform="matrix(4.16667,0,0,4.16667,0,822.188)">
        <rect x="90.545" y="92.425" width="59.581" height="3.985" style="fill:rgb(51,88,99);"/>
    </g>
    <g transform="matrix(4.16667,0,0,4.16667,0,361.058)">
        <rect x="167.502" y="147.76" width="59.581" height="3.986" style="fill:rgb(51,88,99);"/>
    </g>
    <g transform="matrix(0,-4.16667,-4.16667,0,1577.09,2045.24)">
        <ellipse cx="241.6" cy="136.902" rx="0.26" ry="74.098" style="fill:rgb(51,88,99);"/>
    </g>
    <g transform="matrix(0,-4.16667,-4.16667,0,1540.83,2081.5)">
        <ellipse cx="241.6" cy="128.199" rx="0.261" ry="74.098" style="fill:rgb(51,88,99);"/>
    </g>
    <g transform="matrix(0,-4.16667,-4.16667,0,1504.57,2117.76)">
        <ellipse cx="241.6" cy="119.497" rx="0.261" ry="74.098" style="fill:rgb(51,88,99);"/>
    </g>
    <g transform="matrix(0,-4.16667,-4.16667,0,1468.3,2154.03)">
        <ellipse cx="241.6" cy="110.793" rx="0.261" ry="74.098" style="fill:rgb(51,88,99);"/>
    </g>
    <g transform="matrix(0,-4.16667,-4.16667,0,1432.04,2190.29)">
        <ellipse cx="241.6" cy="102.09" rx="0.261" ry="74.098" style="fill:rgb(51,88,99);"/>
    </g>
    <g transform="matrix(0,-4.16667,-4.16667,0,1207.55,2038.33)">
        <ellipse cx="196.426" cy="93.387" rx="0.261" ry="28.924" style="fill:rgb(51,88,99);"/>
    </g>
    <g transform="matrix(0,-4.16667,-4.16667,0,1426.7,2398.23)">
        <ellipse cx="265.911" cy="76.497" rx="0.261" ry="48.703" style="fill:rgb(51,88,99);"/>
    </g>
    <g transform="matrix(0,-4.16667,-4.16667,0,1388.2,2436.72)">
        <ellipse cx="265.911" cy="67.257" rx="0.261" ry="48.703" style="fill:rgb(51,88,99);"/>
    </g>
    <g transform="matrix(0,-4.16667,-4.16667,0,1349.71,2475.22)">
        <ellipse cx="265.911" cy="58.019" rx="0.26" ry="48.703" style="fill:rgb(51,88,99);"/>
    </g>
    <g transform="matrix(0,-4.16667,-4.16667,0,1311.22,2513.71)">
        <ellipse cx="265.911" cy="48.781" rx="0.26" ry="48.703" style="fill:rgb(51,88,99);"/>
    </g>
    <g transform="matrix(0,-4.16667,-4.16667,0,827.602,1791.77)">
        <ellipse cx="121.244" cy="77.38" rx="0.261" ry="29.032" style="fill:rgb(51,88,99);"/>
    </g>
    <g transform="matrix(0,-4.16667,-4.16667,0,797.371,1822)">
        <ellipse cx="121.244" cy="70.124" rx="0.26" ry="29.032" style="fill:rgb(51,88,99);"/>
    </g>
    <g transform="matrix(0,-4.16667,-4.16667,0,767.142,1852.23)">
        <ellipse cx="121.244" cy="62.869" rx="0.261" ry="29.032" style="fill:rgb(51,88,99);"/>
    </g>
    <g transform="matrix(0,-4.16667,-4.16667,0,736.91,1882.46)">
        <ellipse cx="121.244" cy="55.614" rx="0.26" ry="29.032" style="fill:rgb(51,88,99);"/>
    </g>
    <g transform="matrix(0,-4.16667,-4.16667,0,706.681,1912.69)">
        <ellipse cx="121.244" cy="48.359" rx="0.26" ry="29.032" style="fill:rgb(51,88,99);"/>
    </g>
    <g transform="matrix(4.16667,0,0,4.16667,0,476.713)">
        <rect x="90.545" y="106.98" width="59.732" height="57.789" style="fill:rgb(215,217,217);"/>
    </g>
    <g transform="matrix(4.16667,0,0,4.16667,0,552.379)">
        <path d="M95.177,141.663L111.701,111.926L125.216,130.933L133.428,120.839L145.646,141.663L95.177,141.663Z" style="fill:rgb(175,202,226);fill-rule:nonzero;"/>
    </g>
    <g transform="matrix(0,-4.16667,-4.16667,0,1142.17,1522.44)">
        <circle cx="126.673" cy="147.448" r="4.299" style="fill:rgb(175,202,226);"/>
    </g>
    <g transform="matrix(4.16667,0,0,4.16667,0,476.3)">
        <path d="M145.646,160.083C145.641,160.078 145.637,159.998 145.632,159.846C145.629,159.673 145.624,159.452 145.618,159.172C145.612,158.558 145.602,157.69 145.59,156.571C145.575,154.28 145.554,150.966 145.527,146.757C145.496,138.317 145.453,126.296 145.402,111.864L145.646,112.109C131.029,112.12 113.702,112.134 95.182,112.15C95.113,112.209 95.715,111.614 95.461,111.872L95.461,115.15C95.461,116.241 95.46,117.328 95.46,118.411C95.46,120.577 95.459,122.723 95.458,124.846C95.456,129.093 95.454,133.25 95.452,137.298C95.442,145.392 95.432,153.043 95.424,160.082L95.177,159.835C110.24,159.887 122.822,159.931 131.667,159.961C136.078,159.988 139.555,160.01 141.959,160.026C143.134,160.038 144.045,160.048 144.69,160.055C144.985,160.061 145.217,160.066 145.397,160.069C145.557,160.073 145.641,160.078 145.646,160.083C145.651,160.087 145.576,160.092 145.425,160.097C145.251,160.101 145.029,160.106 144.744,160.111C144.111,160.117 143.216,160.127 142.062,160.14C139.672,160.155 136.212,160.177 131.826,160.205C122.942,160.236 110.306,160.278 95.177,160.33L94.929,160.331L94.929,160.082C94.92,153.043 94.911,145.392 94.901,137.298C94.899,133.25 94.896,129.093 94.894,124.846C94.893,122.723 94.893,120.577 94.892,118.411L94.892,113.508L94.891,112.685L94.891,111.872C94.638,112.122 95.237,111.517 95.182,111.58C113.702,111.595 131.029,111.609 145.646,111.62L145.891,111.62L145.89,111.864C145.838,126.361 145.795,138.434 145.765,146.913C145.738,151.098 145.716,154.394 145.701,156.672C145.689,157.77 145.68,158.622 145.674,159.226C145.667,159.495 145.663,159.707 145.66,159.873C145.655,160.017 145.651,160.087 145.646,160.083Z" style="fill:rgb(51,88,99);fill-rule:nonzero;"/>
    </g>
    <g transform="matrix(4.16667,0,0,4.16667,0,1105.21)">
        <rect x="167.466" y="40.006" width="42.273" height="40.898" style="fill:rgb(215,217,217);"/>
    </g>
    <g transform="matrix(4.16667,0,0,4.16667,0,1158.76)">
        <path d="M170.743,64.552L182.437,43.506L192.002,56.957L197.814,49.815L206.461,64.552L170.743,64.552Z" style="fill:rgb(175,202,226);fill-rule:nonzero;"/>
    </g>
    <g transform="matrix(0,-4.16667,-4.16667,0,1090.34,2127.29)">
        <ellipse cx="193.035" cy="68.646" rx="3.042" ry="3.042" style="fill:rgb(175,202,226);"/>
    </g>
    <g transform="matrix(4.16667,0,0,4.16667,0,1104.91)">
        <path d="M206.461,77.588C206.458,77.585 206.454,77.529 206.451,77.421C206.449,77.298 206.446,77.142 206.442,76.944C206.437,76.509 206.43,75.895 206.422,75.104C206.411,73.482 206.396,71.136 206.377,68.158C206.355,62.184 206.325,53.677 206.288,43.464L206.461,43.636C196.117,43.645 183.854,43.655 170.747,43.665C170.699,43.707 171.125,43.286 170.945,43.469L170.945,48.097C170.944,49.629 170.944,51.148 170.943,52.651C170.941,55.657 170.94,58.599 170.938,61.463C170.931,67.191 170.925,72.607 170.919,77.588L170.743,77.412C181.404,77.45 190.308,77.481 196.568,77.502C199.69,77.522 202.151,77.537 203.852,77.548C204.683,77.557 205.328,77.564 205.785,77.569C205.993,77.573 206.157,77.576 206.285,77.578C206.398,77.581 206.458,77.585 206.461,77.588C206.465,77.591 206.412,77.595 206.305,77.598C206.181,77.601 206.024,77.604 205.823,77.609C205.375,77.613 204.742,77.619 203.925,77.628C202.233,77.639 199.785,77.655 196.681,77.675C190.393,77.697 181.45,77.727 170.743,77.764L170.568,77.764L170.568,77.588C170.562,72.607 170.556,67.191 170.549,61.463C170.547,58.599 170.545,55.657 170.544,52.651C170.543,51.148 170.543,49.629 170.543,48.097C170.542,47.33 170.542,46.561 170.542,45.788L170.542,43.469C170.363,43.646 170.786,43.217 170.747,43.262C183.854,43.273 196.117,43.283 206.461,43.29L206.635,43.291L206.634,43.464C206.597,53.723 206.567,62.267 206.545,68.268C206.526,71.229 206.511,73.562 206.5,75.174C206.492,75.952 206.485,76.554 206.48,76.982C206.476,77.172 206.473,77.323 206.471,77.44C206.468,77.541 206.465,77.591 206.461,77.588Z" style="fill:rgb(51,88,99);fill-rule:nonzero;"/>
    </g>
    <g transform="matrix(4.16667,0,0,4.16667,0,1447.95)">
        <path d="M562.702,17.34L552.691,16.153L550.346,34.893L564.976,36.785L565.196,35.632C566.129,30.497 569.582,9.456 568.967,5.868C568.28,1.866 562.702,17.34 562.702,17.34Z" style="fill:rgb(175,202,226);fill-rule:nonzero;"/>
    </g>
    <g transform="matrix(-4.13767,-0.490684,-0.490684,4.13767,4711.35,1733.57)">
        <ellipse cx="566.245" cy="18.458" rx="0.323" ry="15.778" style="fill:rgb(12,43,52);"/>
    </g>
    <g transform="matrix(2.9135,-2.97869,-2.97869,-2.9135,775.154,3260.03)">
        <path d="M563.97,21.826C563.796,21.798 563.572,22.311 563.574,22.976C563.572,23.641 563.797,24.155 563.97,24.127C564.149,24.1 564.218,23.587 564.22,22.976C564.217,22.364 564.148,21.85 563.97,21.826Z" style="fill:rgb(12,43,52);fill-rule:nonzero;"/>
    </g>
    <g transform="matrix(2.52355,-3.31554,-3.31554,-2.52355,1007.41,3441.27)">
        <path d="M564.58,22.784C564.406,22.756 564.172,23.323 564.173,24.054C564.171,24.786 564.405,25.353 564.58,25.325C564.758,25.297 564.817,24.73 564.819,24.054C564.817,23.378 564.758,22.81 564.58,22.784Z" style="fill:rgb(12,43,52);fill-rule:nonzero;"/>
    </g>
    <g transform="matrix(4.16667,0,0,4.16667,0,1559.36)">
        <path d="M564.991,3.466C565.034,3.546 564.738,3.796 564.244,4.153C563.756,4.513 563.07,4.982 562.469,5.626C561.874,6.266 561.528,6.994 561.395,7.547C561.255,8.101 561.288,8.48 561.193,8.5C561.118,8.524 560.909,8.149 560.944,7.48C560.97,6.82 561.311,5.922 561.995,5.187C562.676,4.459 563.453,4.027 564.011,3.76C564.576,3.497 564.947,3.39 564.991,3.466Z" style="fill:rgb(12,43,52);fill-rule:nonzero;"/>
    </g>
    <g transform="matrix(-4.06581,0.911191,0.911191,4.06581,4616.81,918.333)">
        <path d="M563.267,20.611C563.094,20.577 562.864,21.007 562.865,21.578C562.864,22.147 563.095,22.576 563.267,22.541C563.444,22.508 563.51,22.078 563.511,21.576C563.509,21.075 563.444,20.646 563.267,20.611Z" style="fill:rgb(12,43,52);fill-rule:nonzero;"/>
    </g>
    <g transform="matrix(-4.14362,-0.437628,-0.437628,4.14362,4677.91,1679.07)">
        <ellipse cx="561.795" cy="21.14" rx="0.323" ry="1.142" style="fill:rgb(12,43,52);"/>
    </g>
    <g transform="matrix(4.16667,0,0,4.16667,0,1459.39)">
        <path d="M556.6,33.642L501.167,28.022L386.238,30.592L416.796,5.951L493.507,2.265L560.575,11.507L556.6,33.642Z" style="fill:rgb(12,43,52);fill-rule:nonzero;"/>
    </g>
    <g transform="matrix(0,-4.16667,-4.16667,0,1901.96,3363.84)">
        <ellipse cx="438.815" cy="17.655" rx="0.26" ry="24.095" style="fill:rgb(51,88,99);"/>
    </g>
    <g transform="matrix(0.655154,4.11484,4.11484,-0.655154,1545.99,-366.424)">
        <path d="M450.29,15.904L475.392,15.904L476.58,23.366L450.921,21.627L450.29,15.904Z" style="fill-rule:nonzero;"/>
    </g>
    <g transform="matrix(4.16667,0,0,4.16667,0,1538.26)">
        <path d="M486.81,10.18L485.689,0.16L466.907,2.141L468.392,16.818L469.565,16.769C474.778,16.51 496.053,15.085 499.407,13.67C503.147,12.09 486.81,10.18 486.81,10.18Z" style="fill:rgb(175,202,226);fill-rule:nonzero;"/>
    </g>
    <g transform="matrix(-0.463479,-4.14081,-4.14081,0.463479,2251.74,3601.76)">
        <ellipse cx="484.068" cy="2.52" rx="0.323" ry="15.778" style="fill:rgb(12,43,52);"/>
    </g>
    <g transform="matrix(3.56359,2.15915,2.15915,-3.56359,281.758,551.939)">
        <path d="M487.975,4.632C487.8,4.606 487.578,5.118 487.578,5.783C487.577,6.448 487.802,6.962 487.975,6.935C488.155,6.908 488.223,6.395 488.225,5.783C488.222,5.172 488.153,4.659 487.975,4.632Z" style="fill:rgb(12,43,52);fill-rule:nonzero;"/>
    </g>
    <g transform="matrix(3.80307,1.70228,1.70228,-3.80307,168.579,774.349)">
        <path d="M489.169,4.159C488.994,4.131 488.761,4.698 488.762,5.429C488.761,6.162 488.995,6.729 489.169,6.7C489.346,6.673 489.407,6.107 489.408,5.429C489.406,4.752 489.347,4.185 489.169,4.159Z" style="fill:rgb(12,43,52);fill-rule:nonzero;"/>
    </g>
    <g transform="matrix(4.16667,0,0,4.16667,0,1583.92)">
        <path d="M474.035,4.556C473.968,4.616 473.657,4.384 473.197,3.986C472.735,3.592 472.122,3.031 471.359,2.591C470.6,2.158 469.812,1.987 469.243,1.984C468.672,1.972 468.311,2.092 468.269,2.002C468.23,1.936 468.547,1.647 469.205,1.528C469.855,1.404 470.807,1.531 471.678,2.031C472.542,2.528 473.139,3.187 473.527,3.669C473.911,4.158 474.1,4.495 474.035,4.556Z" style="fill:rgb(12,43,52);fill-rule:nonzero;"/>
    </g>
    <g transform="matrix(-1.81224,-3.75192,-3.75192,1.81224,2931.4,3396.55)">
        <path d="M486.41,5.291C486.237,5.255 486.007,5.685 486.008,6.255C486.008,6.825 486.238,7.254 486.41,7.22C486.588,7.186 486.653,6.757 486.655,6.254C486.652,5.753 486.587,5.324 486.41,5.291Z" style="fill:rgb(12,43,52);fill-rule:nonzero;"/>
    </g>
    <g transform="matrix(-0.517266,-4.13443,-4.13443,0.517266,2305.91,3582.12)">
        <ellipse cx="485.71" cy="7.486" rx="0.324" ry="1.142" style="fill:rgb(12,43,52);"/>
    </g>
    <g transform="matrix(4.16667,0,0,4.16667,0,422.804)">
        <path d="M376.868,163.503L392.896,163.213C393.11,161.358 393.421,154.145 393.421,154.145C393.421,154.145 400.121,153.523 400.613,146.894C401.104,140.264 400.894,124.958 400.894,124.958C393.417,121.184 384.484,121.751 377.544,126.441L376.514,127.137L376.868,163.503Z" style="fill:rgb(193,133,115);fill-rule:nonzero;"/>
    </g>
    <g transform="matrix(2.90828,2.98379,2.98379,-2.90828,57.6752,229.791)">
        <ellipse cx="399.355" cy="149.095" rx="0.966" ry="0.966" style="fill:rgb(12,43,52);"/>
    </g>
    <g transform="matrix(4.16667,0,0,4.16667,0,356.288)">
        <path d="M400.365,150.815C400.254,150.923 399.633,150.382 398.72,150.321C397.807,150.248 397.115,150.692 397.02,150.568C396.974,150.513 397.09,150.312 397.394,150.11C397.691,149.909 398.192,149.728 398.761,149.77C399.329,149.812 399.798,150.064 400.063,150.307C400.333,150.551 400.418,150.767 400.365,150.815Z" style="fill:rgb(12,43,52);fill-rule:nonzero;"/>
    </g>
    <g transform="matrix(-3.40768,-2.39768,-2.39768,3.40768,3305.19,1414.44)">
        <ellipse cx="389.233" cy="148.899" rx="0.966" ry="0.965" style="fill:rgb(12,43,52);"/>
    </g>
    <g transform="matrix(4.16667,0,0,4.16667,0,357.892)">
        <path d="M390.39,150.622C390.279,150.731 389.659,150.19 388.745,150.128C387.832,150.054 387.139,150.499 387.045,150.375C386.999,150.321 387.116,150.119 387.418,149.917C387.716,149.716 388.216,149.535 388.785,149.577C389.355,149.619 389.824,149.871 390.088,150.114C390.358,150.359 390.444,150.574 390.39,150.622Z" style="fill:rgb(12,43,52);fill-rule:nonzero;"/>
    </g>
    <g transform="matrix(4.16667,0,0,4.16667,0,393.908)">
        <path d="M393.589,149.743C393.587,149.671 394.16,149.592 395.086,149.521C395.327,149.51 395.518,149.468 395.543,149.34C395.595,149.198 395.518,148.937 395.414,148.644C395.216,148.026 395.016,147.4 394.806,146.744C393.971,144.037 393.406,141.808 393.543,141.766C393.68,141.723 394.468,143.883 395.303,146.59C395.499,147.251 395.687,147.881 395.872,148.504C395.944,148.785 396.089,149.118 395.942,149.505C395.864,149.698 395.666,149.83 395.506,149.861C395.345,149.899 395.21,149.891 395.095,149.889C394.166,149.865 393.591,149.815 393.589,149.743Z" style="fill:rgb(12,43,52);fill-rule:nonzero;"/>
    </g>
    <g transform="matrix(4.16667,0,0,4.16667,0,444.358)">
        <path d="M390.558,138.461C389.641,137.835 393.093,140.016 394.959,140.04C394.959,140.04 393.786,141.679 391.917,140.861C389.976,140.012 390.558,138.461 390.558,138.461Z" style="fill:white;fill-rule:nonzero;"/>
    </g>
    <g transform="matrix(4.16667,0,0,4.16667,0,515.85)">
        <path d="M393.439,131.719C393.439,131.719 389.224,131.802 384.941,128.728C384.941,128.728 386.691,133.628 393.348,133.439L393.439,131.719Z" style="fill:rgb(174,104,89);fill-rule:nonzero;"/>
    </g>
    <g transform="matrix(4.16667,0,0,4.16667,0,281.558)">
        <path d="M401.375,156.471C402.897,156.427 404.127,154.726 403.693,153.267C403.259,151.809 401.3,151.058 400.001,151.851C400.746,151.145 401.512,150.41 401.905,149.462C402.297,148.515 402.215,147.289 401.435,146.623C400.666,145.967 399.493,146.055 398.564,146.452C397.154,147.054 396.042,148.244 394.595,148.748C393.131,149.257 391.529,149 389.981,149.068C388.269,149.142 386.54,149.648 385.204,150.72C383.868,151.792 382.972,153.473 383.069,155.183C380.905,154.914 378.503,154.883 376.792,156.233C375.348,157.373 374.71,159.301 374.705,161.141C374.701,162.979 375.462,164.724 376.001,166.483L376.001,166.477C376.324,167.503 376.663,167.862 376.663,167.862L377.47,172.619L380.425,172.562L380.234,162.654C380.234,162.654 379.937,158.482 383.528,158.848C387.118,159.213 391.999,163.264 398.993,162.242C400.125,162.077 401.305,161.95 402.252,161.308C403.2,160.665 403.88,159.542 403.748,158.405C403.617,157.268 402.501,156.263 401.375,156.471Z" style="fill:rgb(12,43,52);fill-rule:nonzero;"/>
    </g>
    <g transform="matrix(4.16667,0,0,4.16667,0,386.529)">
        <path d="M377.788,141.73C377.644,141.675 372.866,141.054 373.317,146.697C373.769,152.339 379.318,150.017 379.315,149.855C379.312,149.692 377.788,141.73 377.788,141.73Z" style="fill:rgb(193,133,115);fill-rule:nonzero;"/>
    </g>
    <g transform="matrix(4.16667,0,0,4.16667,0,381.567)">
        <path d="M377.428,149.204C377.402,149.187 377.335,149.28 377.175,149.37C377.019,149.457 376.744,149.53 376.442,149.444C375.827,149.272 375.25,148.366 375.142,147.351C375.086,146.839 375.155,146.342 375.304,145.922C375.444,145.495 375.687,145.185 375.983,145.108C376.276,145.015 376.503,145.179 376.584,145.331C376.673,145.483 376.646,145.598 376.677,145.606C376.694,145.619 376.79,145.502 376.726,145.272C376.694,145.162 376.618,145.034 376.476,144.936C376.331,144.837 376.128,144.797 375.921,144.837C375.488,144.901 375.128,145.333 374.964,145.794C374.776,146.258 374.687,146.818 374.749,147.393C374.876,148.527 375.543,149.545 376.377,149.716C376.783,149.787 377.105,149.641 377.265,149.494C377.428,149.341 377.449,149.212 377.428,149.204Z" style="fill:rgb(174,104,89);fill-rule:nonzero;"/>
    </g>
    <g transform="matrix(4.16667,0,0,4.16667,0,1239.73)">
        <path d="M363.894,66.347C366.899,70.816 385.086,98.195 406.798,78.29C434.473,52.918 456.39,30.714 456.39,30.714L464.608,80.865L490.377,79.471C490.377,79.471 480.34,4.795 473.99,-1.995C466.907,-9.569 460.378,-8.93 404.705,34.999L363.894,66.347Z" style="fill:rgb(51,88,99);fill-rule:nonzero;"/>
    </g>
    <g transform="matrix(3.36592,-2.45595,-2.45595,-3.36592,657.895,2667.84)">
        <path d="M453.906,116.276L483.683,116.276L483.529,114.055L453.749,113.788L453.906,116.276Z" style="fill:rgb(12,43,52);fill-rule:nonzero;"/>
    </g>
    <g transform="matrix(4.16667,0,0,4.16667,0,689.554)">
        <path d="M461.978,112.774C461.978,112.774 465.205,104.376 465.932,102.587C466.659,100.798 467.887,97.681 468.346,97.619C468.805,97.556 470.487,97.819 468.29,103.162C466.095,108.505 470.889,105.239 470.889,105.239L475.522,101.924C475.522,101.924 479.186,112.86 477.099,116.154C474.847,119.709 471.611,123.111 471.611,123.111L461.978,112.774Z" style="fill:rgb(193,133,115);fill-rule:nonzero;"/>
    </g>
    <g transform="matrix(4.16667,0,0,4.16667,0,998.533)">
        <path d="M462.248,37.649C461.773,36.552 431.176,63.578 425.087,64.495L407.245,41.261C407.245,41.261 403.538,35.385 395.588,25.324C390.456,18.83 376.294,20.18 372.571,28.091C366.247,41.529 366.177,56.476 362.805,85.548L361.381,105.165C361.077,109.348 361.113,113.552 361.572,117.72C362.109,122.596 363.215,127.682 365.476,126.996L406.282,93.263L407.59,77.943C416.172,86.643 418.838,88.461 423.304,87.769C434.536,86.028 473.838,50.677 473.838,50.677C473.838,50.677 462.723,38.745 462.248,37.649Z" style="fill:rgb(175,202,226);fill-rule:nonzero;"/>
    </g>
    <g transform="matrix(4.16667,0,0,4.16667,0,791.817)">
        <path d="M468.547,105.24C468.504,105.291 467.643,104.664 466.353,103.524C465.064,102.387 463.364,100.716 461.659,98.715C459.955,96.712 458.577,94.766 457.66,93.312C456.74,91.857 456.258,90.907 456.315,90.873C456.382,90.833 456.973,91.714 457.964,93.106C458.954,94.5 460.367,96.392 462.055,98.378C463.744,100.36 465.387,102.055 466.605,103.256C467.822,104.456 468.597,105.181 468.547,105.24Z" style="fill:rgb(12,43,52);fill-rule:nonzero;"/>
    </g>
    <g transform="matrix(4.10234,0.729315,0.729315,-4.10234,-29.1724,1294.67)">
        <ellipse cx="424.172" cy="77.411" rx="0.261" ry="4.676" style="fill:rgb(12,43,52);"/>
    </g>
    <g transform="matrix(4.02168,-1.08958,-1.08958,-4.02168,146.584,2062.04)">
        <ellipse cx="426.148" cy="77.828" rx="0.261" ry="4.209" style="fill:rgb(12,43,52);"/>
    </g>
    <g transform="matrix(4.16667,0,0,4.16667,0,905.154)">
        <path d="M383.07,67.759C383.099,67.738 383.463,68.199 384.098,69.049C384.782,69.975 385.681,71.191 386.767,72.661C389.017,75.714 392.15,79.911 395.661,84.509C399.169,89.058 402.342,93.173 404.71,96.244C405.822,97.696 406.742,98.897 407.441,99.811C408.078,100.66 408.417,101.14 408.389,101.162C408.362,101.185 407.968,100.747 407.283,99.937C406.596,99.129 405.618,97.945 404.421,96.474C402.029,93.529 398.764,89.427 395.247,84.824C391.733,80.224 388.643,75.986 386.468,72.876C385.38,71.322 384.514,70.054 383.932,69.166C383.348,68.279 383.039,67.779 383.07,67.759Z" style="fill:rgb(12,43,52);fill-rule:nonzero;"/>
    </g>
    <g transform="matrix(2.7815,-3.10231,-3.10231,-2.7815,779.712,2656.73)">
        <ellipse cx="375.154" cy="83.828" rx="0.261" ry="3.624" style="fill:rgb(12,43,52);"/>
    </g>
    <g transform="matrix(-3.45312,-2.33176,-2.33176,3.45312,2993.76,1965.38)">
        <ellipse cx="372.337" cy="67.171" rx="0.261" ry="3.58" style="fill:rgb(12,43,52);"/>
    </g>
    <g transform="matrix(3.19194,-2.67818,-2.67818,-3.19194,519.925,2564.54)">
        <ellipse cx="377.445" cy="56.762" rx="0.261" ry="2.839" style="fill:rgb(12,43,52);"/>
    </g>
    <g transform="matrix(-2.33458,-3.45121,-3.45121,2.33458,2536.75,2597.28)">
        <ellipse cx="367.366" cy="43.004" rx="0.261" ry="2.88" style="fill:rgb(12,43,52);"/>
    </g>
    <g transform="matrix(3.17877,-2.6938,-2.6938,-3.17877,496.172,2591.04)">
        <path d="M380.909,41.171C380.78,41.127 380.25,42.606 380.256,44.517C380.25,46.43 380.781,47.906 380.909,47.863C381.057,47.827 380.768,46.35 380.776,44.517C380.769,42.684 381.058,41.207 380.909,41.171Z" style="fill:rgb(12,43,52);fill-rule:nonzero;"/>
    </g>
    <g transform="matrix(-2.70204,-3.17176,-3.17176,2.70204,2853.29,2517.58)">
        <ellipse cx="392.741" cy="49.077" rx="0.26" ry="3.584" style="fill:rgb(12,43,52);"/>
    </g>
    <g transform="matrix(2.98079,-2.91136,-2.91136,-2.98079,538.722,2638.74)">
        <path d="M368.033,32.411C367.899,32.38 367.526,33.593 367.53,35.142C367.526,36.69 367.899,37.902 368.033,37.872C368.181,37.843 368.047,36.631 368.05,35.141C368.046,33.652 368.18,32.439 368.033,32.411Z" style="fill:rgb(12,43,52);fill-rule:nonzero;"/>
    </g>
    <g transform="matrix(-0.874804,-4.0738,-4.0738,0.874804,2233.79,2916.79)">
        <path d="M394.888,56.785C394.75,56.762 394.438,58.055 394.441,59.685C394.438,61.316 394.752,62.609 394.888,62.587C395.036,62.565 394.958,61.272 394.962,59.686C394.958,58.099 395.035,56.806 394.888,56.785Z" style="fill:rgb(12,43,52);fill-rule:nonzero;"/>
    </g>
    <g transform="matrix(4.16667,0,0,4.16667,0,1047.63)">
        <path d="M388.44,63.914C388.577,63.969 388.071,65.539 387.461,67.472C386.932,69.14 386.494,70.54 386.293,70.866L386.182,70.839C386.214,70.781 386.241,70.755 386.259,70.759C386.279,70.764 386.29,70.798 386.294,70.866L386.182,70.838C386.157,70.457 386.43,69 386.965,67.316C387.58,65.361 388.31,63.862 388.44,63.914Z" style="fill:rgb(12,43,52);fill-rule:nonzero;"/>
    </g>
    <g transform="matrix(2.44395,-3.37464,-3.37464,-2.44395,939.399,2786.51)">
        <ellipse cx="389.525" cy="79.523" rx="0.261" ry="3.466" style="fill:rgb(12,43,52);"/>
    </g>
    <g transform="matrix(-3.37641,-2.44151,-2.44151,3.37641,3105.05,1866.47)">
        <path d="M382.616,86.646C382.476,86.632 382.232,87.999 382.233,89.703C382.232,91.408 382.477,92.774 382.616,92.761C382.763,92.747 382.753,91.381 382.753,89.703C382.752,88.026 382.762,86.659 382.616,86.646Z" style="fill:rgb(12,43,52);fill-rule:nonzero;"/>
    </g>
    <g transform="matrix(4.15223,0.346584,0.346584,-4.15223,-28.4333,1478.5)">
        <ellipse cx="372.456" cy="97.556" rx="0.261" ry="3.379" style="fill:rgb(12,43,52);"/>
    </g>
    <g transform="matrix(4.16609,-0.0691018,-0.0691018,-4.16609,5.4484,1634.34)">
        <ellipse cx="367.366" cy="75.8" rx="0.26" ry="3.648" style="fill:rgb(12,43,52);"/>
    </g>
    <g transform="matrix(4.00513,-1.14892,-1.14892,-4.00513,120.318,2021.04)">
        <ellipse cx="366.119" cy="53.249" rx="0.261" ry="2.332" style="fill:rgb(12,43,52);"/>
    </g>
    <g transform="matrix(-2.90747,-2.98458,-2.98458,2.90747,3018.03,1980.93)">
        <path d="M380.978,104.544C380.83,104.565 380.954,106.178 380.949,108.164C380.954,110.151 380.829,111.763 380.978,111.785C381.113,111.807 381.474,110.193 381.47,108.165C381.474,106.136 381.114,104.521 380.978,104.544Z" style="fill:rgb(12,43,52);fill-rule:nonzero;"/>
    </g>
    <g transform="matrix(4.16289,0.177265,0.177265,-4.16289,-19.2075,1541.8)">
        <ellipse cx="376.59" cy="116.369" rx="0.261" ry="3.303" style="fill:rgb(12,43,52);"/>
    </g>
    <g transform="matrix(2.34751,-3.44243,-3.44243,-2.34751,1115.59,2742.5)">
        <path d="M391.253,114.024C391.105,114.041 391.161,115.509 391.158,117.315C391.16,119.119 391.106,120.588 391.253,120.604C391.391,120.622 391.681,119.153 391.679,117.314C391.681,115.476 391.392,114.006 391.253,114.024Z" style="fill:rgb(12,43,52);fill-rule:nonzero;"/>
    </g>
    <g transform="matrix(4.16584,-0.0831386,-0.0831386,-4.16584,9.17582,1641.34)">
        <ellipse cx="390.095" cy="106.476" rx="0.261" ry="3.508" style="fill:rgb(12,43,52);"/>
    </g>
    <g transform="matrix(0.971599,-4.0518,-4.0518,-0.971599,1660.38,2911.35)">
        <path d="M397.429,93.311C397.282,93.332 397.372,94.713 397.368,96.409C397.371,98.106 397.281,99.486 397.429,99.507C397.566,99.531 397.892,98.15 397.888,96.409C397.892,94.67 397.566,93.288 397.429,93.311Z" style="fill:rgb(12,43,52);fill-rule:nonzero;"/>
    </g>
    <g transform="matrix(4.1665,-0.0367778,-0.0367778,-4.1665,3.96558,1623.73)">
        <ellipse cx="401.098" cy="106.055" rx="0.261" ry="2.946" style="fill:rgb(12,43,52);"/>
    </g>
    <g transform="matrix(4.16264,-0.183102,-0.183102,-4.16264,18.9188,1683.47)">
        <ellipse cx="408.776" cy="94.338" rx="0.261" ry="3.721" style="fill:rgb(12,43,52);"/>
    </g>
    <g transform="matrix(3.11567,-2.76654,-2.76654,-3.11567,665.833,2626.54)">
        <ellipse cx="401.315" cy="88.215" rx="0.261" ry="2.435" style="fill:rgb(12,43,52);"/>
    </g>
    <g transform="matrix(-0.310345,-4.15509,-4.15509,0.310345,2158.93,2942.51)">
        <ellipse cx="407.586" cy="80.422" rx="0.261" ry="2.954" style="fill:rgb(12,43,52);"/>
    </g>
    <g transform="matrix(4.16372,-0.156574,-0.156574,-4.16372,13.9091,1673.92)">
        <ellipse cx="416.13" cy="81.013" rx="0.261" ry="3.3" style="fill:rgb(12,43,52);"/>
    </g>
    <g transform="matrix(0.465776,-4.14055,-4.14055,-0.465776,1825.98,3092.59)">
        <path d="M418.353,63.504C418.214,63.487 417.92,65.099 417.922,67.109C417.92,69.121 418.215,70.731 418.353,70.714C418.5,70.7 418.441,69.089 418.444,67.109C418.44,65.131 418.5,63.52 418.353,63.504Z" style="fill:rgb(12,43,52);fill-rule:nonzero;"/>
    </g>
    <g transform="matrix(-3.93872,-1.35925,-1.35925,3.93872,3582.39,1638.17)">
        <ellipse cx="430.473" cy="68.59" rx="0.261" ry="3.417" style="fill:rgb(12,43,52);"/>
    </g>
    <g transform="matrix(1.11028,-4.01602,-4.01602,-1.11028,1658.53,3109.18)">
        <ellipse cx="435.567" cy="81.491" rx="0.261" ry="3.132" style="fill:rgb(12,43,52);"/>
    </g>
    <g transform="matrix(-2.76591,-3.11623,-3.11623,2.76591,3297.63,2464.48)">
        <ellipse cx="441.861" cy="75.218" rx="0.261" ry="3.129" style="fill:rgb(12,43,52);"/>
    </g>
    <g transform="matrix(4.10105,-0.736533,-0.736533,-4.10105,94.6947,1931.54)">
        <path d="M445.866,85.518C445.731,85.497 445.405,86.991 445.407,88.864C445.404,90.739 445.729,92.231 445.866,92.211C446.014,92.191 445.924,90.7 445.928,88.865C445.925,87.031 446.014,85.538 445.866,85.518Z" style="fill:rgb(12,43,52);fill-rule:nonzero;"/>
    </g>
    <g transform="matrix(-2.90879,-2.9833,-2.9833,2.90879,3464.32,2366.05)">
        <path d="M454.01,80.075C453.862,80.094 453.991,82.041 453.987,84.437C453.991,86.835 453.86,88.781 454.01,88.799C454.146,88.818 454.511,86.872 454.507,84.437C454.511,82.004 454.147,80.056 454.01,80.075Z" style="fill:rgb(12,43,52);fill-rule:nonzero;"/>
    </g>
    <g transform="matrix(1.47787,-3.89577,-3.89577,-1.47787,1583.73,3132.85)">
        <ellipse cx="454.994" cy="92.497" rx="0.261" ry="3.44" style="fill:rgb(12,43,52);"/>
    </g>
    <g transform="matrix(4.00452,-1.15105,-1.15105,-4.00452,187.028,2118.41)">
        <ellipse cx="456.39" cy="98.195" rx="0.261" ry="2.891" style="fill:rgb(12,43,52);"/>
    </g>
    <g transform="matrix(3.39835,-2.41087,-2.41087,-3.39835,473.217,2519.26)">
        <ellipse cx="399.541" cy="68.956" rx="0.26" ry="2.882" style="fill:rgb(12,43,52);"/>
    </g>
    <g transform="matrix(4.16667,0,0,4.16667,0,1223.84)">
        <path d="M477.45,76.21C477.441,76.211 477.414,76.067 477.372,75.784C477.329,75.477 477.272,75.059 477.197,74.525C477.048,73.391 476.833,71.764 476.559,69.681C475.994,65.476 475.179,59.39 473.969,51.903C472.755,44.417 471.153,35.525 468.867,25.765C468.612,24.524 468.242,23.356 467.669,22.232C467.056,21.137 466.243,20.146 465.272,19.309C463.296,17.691 460.657,16.742 457.992,16.952C456.668,17.039 455.334,17.365 454.135,17.998C452.934,18.599 451.842,19.488 450.7,20.317C448.439,21.997 446.144,23.703 443.823,25.43C434.562,32.377 425.889,39.191 418.157,45.577C410.404,51.946 403.665,57.947 398.011,63.021C395.149,65.481 392.099,67.452 389.005,67.768C387.482,67.963 386.039,67.698 384.813,67.264C383.583,66.813 382.564,66.177 381.702,65.551C379.989,64.275 378.867,63.049 378.099,62.241C377.738,61.84 377.455,61.527 377.247,61.296C377.06,61.079 376.967,60.966 376.974,60.96C376.98,60.953 377.086,61.055 377.286,61.26C377.503,61.482 377.797,61.783 378.174,62.168C378.964,62.952 380.109,64.151 381.822,65.386C382.681,65.993 383.693,66.605 384.897,67.03C386.098,67.439 387.496,67.682 388.972,67.479C391.964,67.148 394.943,65.204 397.772,62.742C403.378,57.646 410.113,51.598 417.851,45.207C425.573,38.795 434.244,31.965 443.51,25.013C445.833,23.286 448.129,21.58 450.393,19.9C451.529,19.077 452.622,18.182 453.906,17.537C455.165,16.875 456.569,16.533 457.958,16.443C460.757,16.228 463.522,17.225 465.591,18.928C466.609,19.807 467.459,20.849 468.1,22C468.697,23.165 469.088,24.438 469.333,25.656C471.598,35.438 473.164,44.346 474.332,51.845C475.497,59.346 476.257,65.442 476.76,69.656C476.993,71.744 477.175,73.375 477.301,74.512C477.354,75.049 477.395,75.469 477.425,75.778C477.451,76.063 477.458,76.209 477.45,76.21Z" style="fill:rgb(12,43,52);fill-rule:nonzero;"/>
    </g>
    <g transform="matrix(4.16667,0,0,4.16667,0,1474.65)">
        <path d="M489.134,15.457C489.136,15.492 488.778,15.547 488.129,15.615C487.481,15.683 486.54,15.761 485.378,15.842C483.053,16.006 479.838,16.172 476.288,16.326C472.806,16.476 469.659,16.611 467.198,16.717C466.126,16.756 465.208,16.791 464.441,16.819C463.789,16.836 463.427,16.827 463.425,16.792C463.422,16.756 463.779,16.695 464.426,16.617C465.074,16.537 466.013,16.446 467.174,16.349C469.497,16.156 472.712,15.961 476.265,15.806C479.747,15.679 482.897,15.564 485.36,15.475C486.431,15.451 487.35,15.429 488.118,15.413C488.77,15.407 489.131,15.421 489.134,15.457Z" style="fill:rgb(12,43,52);fill-rule:nonzero;"/>
    </g>
    <g transform="matrix(-3.07047,-2.81661,-2.81661,3.07047,3494.55,2461.07)">
        <path d="M459.148,54.489C459.015,54.469 458.526,57.355 458.533,60.955C458.527,64.556 459.016,67.441 459.148,67.423C459.302,67.405 459.048,64.519 459.054,60.955C459.047,57.392 459.301,54.507 459.148,54.489Z" style="fill:rgb(12,43,52);fill-rule:nonzero;"/>
    </g>
    <g transform="matrix(-2.1902,-3.54459,-3.54459,2.1902,3137.77,2858.47)">
        <path d="M460.133,54.923C459.986,54.933 460.014,57.21 460.011,60.013C460.014,62.818 459.985,65.094 460.133,65.103C460.272,65.114 460.534,62.836 460.532,60.013C460.534,57.192 460.272,54.913 460.133,54.923Z" style="fill:rgb(12,43,52);fill-rule:nonzero;"/>
    </g>
    <g transform="matrix(4.16667,0,0,4.16667,0,1467.71)">
        <path d="M548.722,19.703C548.72,19.72 548.509,19.715 548.111,19.69C547.657,19.653 547.079,19.607 546.368,19.55C544.789,19.401 542.62,19.195 539.97,18.943C534.512,18.375 527.086,17.6 518.88,16.744C510.645,15.88 503.201,14.922 497.792,14.654C495.088,14.511 492.896,14.526 491.381,14.577C490.67,14.608 490.093,14.633 489.638,14.654C489.24,14.673 489.029,14.673 489.027,14.655C489.025,14.637 489.232,14.601 489.629,14.549C490.026,14.492 490.613,14.437 491.37,14.375C492.887,14.261 495.09,14.19 497.808,14.286C503.251,14.462 510.699,15.362 518.934,16.226C527.133,17.141 534.553,17.968 540.007,18.577C542.651,18.897 544.814,19.159 546.389,19.349C547.096,19.446 547.669,19.524 548.121,19.586C548.517,19.645 548.723,19.685 548.722,19.703Z" style="fill:rgb(51,88,99);fill-rule:nonzero;"/>
    </g>
    <g transform="matrix(4.14004,0.470336,0.470336,-4.14004,7.93075,1350.54)">
        <ellipse cx="548.722" cy="14.207" rx="0.261" ry="11.247" style="fill:rgb(51,88,99);"/>
    </g>
</svg>
